# xmcd
#
# Track frame offsets: 
#        150
#        17397
#        35925
#        56317
#        74310
#        97632
#        115982
#        136975
#        156415
#        176260
#        193942
#        211712
#        230917
#
# Disc length: 3360 seconds
#
# Revision: 4
# Processed by: cddbd v1.5.2PL0 Copyright (c) Steve Scherf et al.
# Submitted via: ExactAudioCopyFreeDBPlugin 1.0
#
DISCID=ad0d1e0d
DTITLE=80's Pop Hits - 80's Pop Hits
DYEAR=2001
DGENRE=80s, Pop
TTITLE0=Cyndi Lauper - Girls Just Want To Have Fun
TTITLE1=Gregory Abbott - Shake You Down
TTITLE2=Europe - Carrie
TTITLE3=Dan Hill With Vonda Sheppard - Can't We Try
TTITLE4=Luther Vandross - Stop To Love
TTITLE5=Basia - Time And Tide
TTITLE6=Cheap Trick - The Flame
TTITLE7=Bad English - When I See You Smile
TTITLE8=New Kids On The Block - I'll Be Loving You (Forever)
TTITLE9=Bangles - Eternal Flame
TTITLE10=Warrant - Heaven
TTITLE11=Michael Bolton - How Am I Supposed To Live Without You
TTITLE12=The Manhattans - Shineing Star
EXTD=YEAR: 2001
EXTT0=
EXTT1=
EXTT2=
EXTT3=
EXTT4=
EXTT5=
EXTT6=
EXTT7=
EXTT8=
EXTT9=
EXTT10=
EXTT11=
EXTT12=
PLAYORDER=
